<svg width="545" height="536" viewBox="0 0 545 536" fill="none" xmlns="http://www.w3.org/2000/svg">
<rect x="61" width="479" height="480" rx="239.5" fill="#151031"/>
<rect opacity="0.66" x="296" y="364" width="13" height="13" rx="6.5" fill="#47DD95"/>
<rect opacity="0.8" x="296" y="338" width="13" height="13" rx="6.5" fill="#47DD95"/>
<rect x="296" y="313" width="13" height="13" rx="6.5" fill="#47DD95"/>
<rect opacity="0.55" x="296" y="393" width="13" height="13" rx="6.5" fill="#47DD95"/>
<rect x="273" y="265" width="13" height="13" rx="6.5" fill="#5033FE"/>
<rect x="404" y="265" width="13" height="13" rx="6.5" fill="#00D7FF"/>
<rect x="404" y="241" width="13" height="13" rx="6.5" fill="#00D7FF"/>
<rect x="404" y="217" width="13" height="13" rx="6.5" fill="#00D7FF"/>
<rect x="246" y="265" width="13" height="13" rx="6.5" fill="#5033FE"/>
<rect x="192" y="265" width="13" height="13" rx="6.5" fill="#5033FE"/>
<rect x="192" y="241" width="13" height="13" rx="6.5" fill="#5033FE"/>
<rect x="192" y="217" width="13" height="13" rx="6.5" fill="#5033FE"/>
<rect x="323" y="265" width="13" height="13" rx="6.5" fill="#00D7FF"/>
<rect x="137" y="128" width="111" height="62" rx="30" fill="#5033FE"/>
<path d="M168.84 160.38V169.08H172.14C172.32 168.4 172.88 167.88 173.84 167.88C175.06 167.88 175.72 168.58 175.72 169.9C175.72 171.16 175.16 172.1 173.86 172.1C172.74 172.1 172.16 171.42 172.02 170.66H168.68C168.8 173.18 170.7 175 173.98 175C177.22 175 179.02 173 179.02 169.92C179.02 167.56 177.8 165.14 174.62 165.14C173.46 165.14 172.46 165.56 171.94 166.14V163.38H178.18V160.38H168.84ZM184.468 173.32C184.468 172.26 183.648 171.44 182.448 171.44C181.228 171.44 180.408 172.26 180.408 173.32C180.408 174.34 181.228 175.16 182.448 175.16C183.648 175.16 184.468 174.34 184.468 173.32ZM185.752 167.5C185.752 171.82 187.212 174.94 191.372 174.94C195.532 174.94 196.992 171.82 196.992 167.5C196.992 163.22 195.532 160.1 191.372 160.1C187.212 160.1 185.752 163.22 185.752 167.5ZM193.632 167.5C193.632 169.82 193.392 171.74 191.372 171.74C189.352 171.74 189.112 169.82 189.112 167.5C189.112 165.26 189.352 163.3 191.372 163.3C193.392 163.3 193.632 165.26 193.632 167.5ZM198.399 167.5C198.399 171.82 199.859 174.94 204.019 174.94C208.179 174.94 209.639 171.82 209.639 167.5C209.639 163.22 208.179 160.1 204.019 160.1C199.859 160.1 198.399 163.22 198.399 167.5ZM206.279 167.5C206.279 169.82 206.039 171.74 204.019 171.74C201.999 171.74 201.759 169.82 201.759 167.5C201.759 165.26 201.999 163.3 204.019 163.3C206.039 163.3 206.279 165.26 206.279 167.5ZM211.246 172.48H214.446C213.566 171.96 212.819 171.24 212.206 170.32C211.606 169.387 211.306 168.22 211.306 166.82C211.306 165.287 211.699 164.007 212.486 162.98C213.273 161.94 214.379 161.253 215.806 160.92V158.7H217.146V160.74C217.333 160.727 217.526 160.72 217.726 160.72C218.059 160.72 218.373 160.733 218.666 160.76V158.7H220.006V160.94C220.539 161.06 221.086 161.233 221.646 161.46V164C221.113 163.787 220.566 163.613 220.006 163.48V166.74H218.666V163.28C218.399 163.253 218.139 163.24 217.886 163.24C217.633 163.24 217.386 163.26 217.146 163.3V166.74H215.806V163.8C214.806 164.467 214.306 165.567 214.306 167.1C214.306 168.1 214.513 169.007 214.926 169.82C215.353 170.633 215.986 171.28 216.826 171.76C217.666 172.24 218.706 172.48 219.946 172.48H221.826V175H211.246V172.48Z" fill="white"/>
<path d="M167.864 148.492C167.864 145.672 163.7 146.332 163.7 144.868C163.7 144.34 164.072 144.088 164.564 144.1C165.116 144.112 165.5 144.436 165.536 144.976H167.756C167.672 143.368 166.436 142.456 164.6 142.456C162.836 142.456 161.528 143.344 161.528 144.94C161.504 147.928 165.716 147.088 165.716 148.648C165.716 149.14 165.332 149.44 164.732 149.44C164.156 149.44 163.748 149.128 163.688 148.48H161.504C161.564 150.184 162.98 151.084 164.792 151.084C166.76 151.084 167.864 149.908 167.864 148.492ZM174.047 142.576H168.887V151H174.047V149.356H170.939V147.508H173.687V145.924H170.939V144.22H174.047V142.576ZM175.139 142.576V151H179.879V149.416H177.191V142.576H175.139ZM180.618 142.576V151H185.358V149.416H182.67V142.576H180.618ZM191.257 142.576H186.097V151H191.257V149.356H188.149V147.508H190.897V145.924H188.149V144.22H191.257V142.576ZM196.801 145.312C196.801 145.972 196.441 146.368 195.673 146.368H194.401V144.28H195.673C196.441 144.28 196.801 144.688 196.801 145.312ZM192.349 142.576V151H194.401V147.82H194.893L196.645 151H198.961L197.017 147.664C198.313 147.28 198.889 146.284 198.889 145.228C198.889 143.764 197.857 142.576 195.793 142.576H192.349ZM210.532 146.764C210.532 144.232 208.624 142.456 206.224 142.456C203.836 142.456 201.892 144.232 201.892 146.764C201.892 149.296 203.836 151.084 206.224 151.084C208.612 151.084 210.532 149.296 210.532 146.764ZM203.992 146.764C203.992 145.264 204.856 144.316 206.224 144.316C207.568 144.316 208.444 145.264 208.444 146.764C208.444 148.24 207.568 149.212 206.224 149.212C204.856 149.212 203.992 148.24 203.992 146.764ZM216.917 142.576V147.796L213.485 142.576H211.433V151H213.485V145.804L216.917 151H218.969V142.576H216.917ZM225.377 142.576H220.217V151H225.377V149.356H222.269V147.508H225.017V145.924H222.269V144.22H225.377V142.576Z" fill="white"/>
<rect x="354" y="128" width="112" height="62" rx="30" fill="#00D7FF"/>
<path d="M384.84 160.38V169.08H388.14C388.32 168.4 388.88 167.88 389.84 167.88C391.06 167.88 391.72 168.58 391.72 169.9C391.72 171.16 391.16 172.1 389.86 172.1C388.74 172.1 388.16 171.42 388.02 170.66H384.68C384.8 173.18 386.7 175 389.98 175C393.22 175 395.02 173 395.02 169.92C395.02 167.56 393.8 165.14 390.62 165.14C389.46 165.14 388.46 165.56 387.94 166.14V163.38H394.18V160.38H384.84ZM400.468 173.32C400.468 172.26 399.648 171.44 398.448 171.44C397.228 171.44 396.408 172.26 396.408 173.32C396.408 174.34 397.228 175.16 398.448 175.16C399.648 175.16 400.468 174.34 400.468 173.32ZM401.752 167.5C401.752 171.82 403.212 174.94 407.372 174.94C411.532 174.94 412.992 171.82 412.992 167.5C412.992 163.22 411.532 160.1 407.372 160.1C403.212 160.1 401.752 163.22 401.752 167.5ZM409.632 167.5C409.632 169.82 409.392 171.74 407.372 171.74C405.352 171.74 405.112 169.82 405.112 167.5C405.112 165.26 405.352 163.3 407.372 163.3C409.392 163.3 409.632 165.26 409.632 167.5ZM414.399 167.5C414.399 171.82 415.859 174.94 420.019 174.94C424.179 174.94 425.639 171.82 425.639 167.5C425.639 163.22 424.179 160.1 420.019 160.1C415.859 160.1 414.399 163.22 414.399 167.5ZM422.279 167.5C422.279 169.82 422.039 171.74 420.019 171.74C417.999 171.74 417.759 169.82 417.759 167.5C417.759 165.26 417.999 163.3 420.019 163.3C422.039 163.3 422.279 165.26 422.279 167.5ZM427.246 172.48H430.446C429.566 171.96 428.819 171.24 428.206 170.32C427.606 169.387 427.306 168.22 427.306 166.82C427.306 165.287 427.699 164.007 428.486 162.98C429.273 161.94 430.379 161.253 431.806 160.92V158.7H433.146V160.74C433.333 160.727 433.526 160.72 433.726 160.72C434.059 160.72 434.373 160.733 434.666 160.76V158.7H436.006V160.94C436.539 161.06 437.086 161.233 437.646 161.46V164C437.113 163.787 436.566 163.613 436.006 163.48V166.74H434.666V163.28C434.399 163.253 434.139 163.24 433.886 163.24C433.633 163.24 433.386 163.26 433.146 163.3V166.74H431.806V163.8C430.806 164.467 430.306 165.567 430.306 167.1C430.306 168.1 430.513 169.007 430.926 169.82C431.353 170.633 431.986 171.28 432.826 171.76C433.666 172.24 434.706 172.48 435.946 172.48H437.826V175H427.246V172.48Z" fill="#151031"/>
<path d="M385.864 148.492C385.864 145.672 381.7 146.332 381.7 144.868C381.7 144.34 382.072 144.088 382.564 144.1C383.116 144.112 383.5 144.436 383.536 144.976H385.756C385.672 143.368 384.436 142.456 382.6 142.456C380.836 142.456 379.528 143.344 379.528 144.94C379.504 147.928 383.716 147.088 383.716 148.648C383.716 149.14 383.332 149.44 382.732 149.44C382.156 149.44 381.748 149.128 381.688 148.48H379.504C379.564 150.184 380.98 151.084 382.792 151.084C384.76 151.084 385.864 149.908 385.864 148.492ZM392.047 142.576H386.887V151H392.047V149.356H388.939V147.508H391.687V145.924H388.939V144.22H392.047V142.576ZM393.139 142.576V151H397.879V149.416H395.191V142.576H393.139ZM398.618 142.576V151H403.358V149.416H400.67V142.576H398.618ZM409.257 142.576H404.097V151H409.257V149.356H406.149V147.508H408.897V145.924H406.149V144.22H409.257V142.576ZM414.801 145.312C414.801 145.972 414.441 146.368 413.673 146.368H412.401V144.28H413.673C414.441 144.28 414.801 144.688 414.801 145.312ZM410.349 142.576V151H412.401V147.82H412.893L414.645 151H416.961L415.017 147.664C416.313 147.28 416.889 146.284 416.889 145.228C416.889 143.764 415.857 142.576 413.793 142.576H410.349ZM419.784 144.22H422.016V151H424.068V144.22H426.3V142.576H419.784V144.22ZM428.782 151H431.266L432.658 145.456L434.002 151H436.486L438.682 142.576H436.474L435.25 148.708L433.81 142.576H431.554L430.054 148.708L428.842 142.576H426.646L428.782 151ZM447.763 146.764C447.763 144.232 445.855 142.456 443.455 142.456C441.067 142.456 439.123 144.232 439.123 146.764C439.123 149.296 441.067 151.084 443.455 151.084C445.843 151.084 447.763 149.296 447.763 146.764ZM441.223 146.764C441.223 145.264 442.087 144.316 443.455 144.316C444.799 144.316 445.675 145.264 445.675 146.764C445.675 148.24 444.799 149.212 443.455 149.212C442.087 149.212 441.223 148.24 441.223 146.764Z" fill="#151031"/>
<rect x="246" y="241" width="112" height="62" rx="30" fill="#47DD95"/>
<path d="M275.52 288H279.08V273.4H273.54V276.58H275.52V288ZM281.02 280.5C281.02 284.82 282.48 287.94 286.64 287.94C290.8 287.94 292.26 284.82 292.26 280.5C292.26 276.22 290.8 273.1 286.64 273.1C282.48 273.1 281.02 276.22 281.02 280.5ZM288.9 280.5C288.9 282.82 288.66 284.74 286.64 284.74C284.62 284.74 284.38 282.82 284.38 280.5C284.38 278.26 284.62 276.3 286.64 276.3C288.66 276.3 288.9 278.26 288.9 280.5ZM297.626 286.32C297.626 285.26 296.806 284.44 295.606 284.44C294.386 284.44 293.566 285.26 293.566 286.32C293.566 287.34 294.386 288.16 295.606 288.16C296.806 288.16 297.626 287.34 297.626 286.32ZM298.911 280.5C298.911 284.82 300.371 287.94 304.531 287.94C308.691 287.94 310.151 284.82 310.151 280.5C310.151 276.22 308.691 273.1 304.531 273.1C300.371 273.1 298.911 276.22 298.911 280.5ZM306.791 280.5C306.791 282.82 306.551 284.74 304.531 284.74C302.511 284.74 302.271 282.82 302.271 280.5C302.271 278.26 302.511 276.3 304.531 276.3C306.551 276.3 306.791 278.26 306.791 280.5ZM311.558 280.5C311.558 284.82 313.018 287.94 317.178 287.94C321.338 287.94 322.798 284.82 322.798 280.5C322.798 276.22 321.338 273.1 317.178 273.1C313.018 273.1 311.558 276.22 311.558 280.5ZM319.438 280.5C319.438 282.82 319.198 284.74 317.178 284.74C315.158 284.74 314.918 282.82 314.918 280.5C314.918 278.26 315.158 276.3 317.178 276.3C319.198 276.3 319.438 278.26 319.438 280.5ZM324.405 285.48H327.605C326.725 284.96 325.978 284.24 325.365 283.32C324.765 282.387 324.465 281.22 324.465 279.82C324.465 278.287 324.858 277.007 325.645 275.98C326.431 274.94 327.538 274.253 328.965 273.92V271.7H330.305V273.74C330.491 273.727 330.685 273.72 330.885 273.72C331.218 273.72 331.531 273.733 331.825 273.76V271.7H333.165V273.94C333.698 274.06 334.245 274.233 334.805 274.46V277C334.271 276.787 333.725 276.613 333.165 276.48V279.74H331.825V276.28C331.558 276.253 331.298 276.24 331.045 276.24C330.791 276.24 330.545 276.26 330.305 276.3V279.74H328.965V276.8C327.965 277.467 327.465 278.567 327.465 280.1C327.465 281.1 327.671 282.007 328.085 282.82C328.511 283.633 329.145 284.28 329.985 284.76C330.825 285.24 331.865 285.48 333.105 285.48H334.985V288H324.405V285.48Z" fill="#151031"/>
<path d="M267.396 258.776C267.396 261.296 269.148 263.06 271.632 263.06C273.636 263.06 275.148 261.944 275.628 260.12H273.372C273.024 260.84 272.388 261.2 271.608 261.2C270.348 261.2 269.484 260.264 269.484 258.776C269.484 257.288 270.348 256.352 271.608 256.352C272.388 256.352 273.024 256.712 273.372 257.432H275.628C275.148 255.608 273.636 254.48 271.632 254.48C269.148 254.48 267.396 256.256 267.396 258.776ZM276.645 254.576V263H281.385V261.416H278.697V254.576H276.645ZM282.123 263H284.175V254.576H282.123V263ZM290.582 254.576H285.422V263H290.582V261.356H287.474V259.508H290.222V257.924H287.474V256.22H290.582V254.576ZM297.159 254.576V259.796L293.727 254.576H291.675V263H293.727V257.804L297.159 263H299.211V254.576H297.159ZM300.002 256.22H302.234V263H304.286V256.22H306.518V254.576H300.002V256.22ZM311.663 258.344V256.232H312.779C313.595 256.232 313.943 256.64 313.943 257.288C313.943 257.936 313.595 258.344 312.779 258.344H311.663ZM316.031 257.288C316.031 255.74 314.999 254.576 312.935 254.576H309.611V263H311.663V259.976H312.935C315.083 259.976 316.031 258.68 316.031 257.288ZM322.607 263H324.779L321.731 254.576H319.355L316.307 263H318.455L318.959 261.512H322.103L322.607 263ZM321.575 259.928H319.499L320.531 256.844L321.575 259.928ZM327.723 260.216V263H329.775V260.216L332.691 254.576H330.387L328.767 258.104L327.135 254.576H324.807L327.723 260.216ZM339.398 260.492C339.398 257.672 335.234 258.332 335.234 256.868C335.234 256.34 335.606 256.088 336.098 256.1C336.65 256.112 337.034 256.436 337.07 256.976H339.29C339.206 255.368 337.97 254.456 336.134 254.456C334.37 254.456 333.062 255.344 333.062 256.94C333.038 259.928 337.25 259.088 337.25 260.648C337.25 261.14 336.866 261.44 336.266 261.44C335.69 261.44 335.282 261.128 335.222 260.48H333.038C333.098 262.184 334.514 263.084 336.326 263.084C338.294 263.084 339.398 261.908 339.398 260.492Z" fill="#151031"/>
<g clip-path="url(#clip0)">
<path d="M223 273L230.875 265L232 265L232 266.143L225.25 273L232 279.857L232 281L230.875 281L223 273Z" fill="#5033FE"/>
</g>
<g clip-path="url(#clip1)">
<path d="M386 273L378.125 265L377 265L377 266.143L383.75 273L377 279.857L377 281L378.125 281L386 273Z" fill="#00D7FF"/>
</g>
<path opacity="0.8" d="M23 474L155.78 338H248L115.215 474H23Z" fill="#47DD95"/>
<path opacity="0.8" d="M145.432 388H238L92.5632 536H0L145.432 388Z" fill="#5033FE"/>
<defs>
<clipPath id="clip0">
<rect width="16" height="9" fill="white" transform="translate(232 265) rotate(90)"/>
</clipPath>
<clipPath id="clip1">
<rect width="16" height="9" fill="white" transform="matrix(4.37114e-08 1 1 -4.37114e-08 377 265)"/>
</clipPath>
</defs>
</svg>
